<svg width="24" height="24" viewBox="0 0 24 24" fill="none" xmlns="http://www.w3.org/2000/svg">
<circle cx="12.0833" cy="8.74998" r="4.08333" stroke="#254365" stroke-width="0.7" stroke-linejoin="round"/>
<path d="M8.2041 9.97497H10.2458C10.584 9.97497 10.8583 10.2492 10.8583 10.5875C10.8583 10.9257 11.1325 11.2 11.4708 11.2H11.8791C12.4429 11.2 12.8999 11.657 12.8999 12.2208V12.6291" stroke="#254365" stroke-width="0.7" stroke-linejoin="round"/>
<path d="M12.4917 4.66665L11.461 6.13905C11.2155 6.48981 11.1818 6.94688 11.3733 7.32984L11.6407 7.86465C11.878 8.3394 12.4726 8.50669 12.9227 8.22537C13.356 7.95454 13.9277 8.09838 14.1812 8.54206L14.2409 8.64654C14.4217 8.96301 14.7583 9.15832 15.1228 9.15832H16.1667" stroke="#254365" stroke-width="0.7" stroke-linejoin="round"/>
<path d="M12.0833 2.33332C12.0833 1.68898 11.5609 1.16665 10.9166 1.16665H9.16659V2.33332C9.16659 2.97765 9.68892 3.49998 10.3333 3.49998H12.0833V2.33332Z" stroke="#254365" stroke-width="0.7" stroke-linejoin="round"/>
<path d="M12.0833 4.66665V2.91665" stroke="#254365" stroke-width="0.7"/>
<path d="M12.0833 2.33332C12.0833 1.68898 12.6056 1.16665 13.2499 1.16665H14.9999V2.33332C14.9999 2.97765 14.4776 3.49998 13.8333 3.49998H12.0833V2.33332Z" stroke="#254365" stroke-width="0.7" stroke-linejoin="round"/>
<path d="M17 15.5L19 13.5V9C19 8.17157 19.6716 7.5 20.5 7.5C21.3284 7.5 22 8.17157 22 9V15.0858C22 15.351 21.8946 15.6054 21.7071 15.7929L17 20.5V22H12V16.5" stroke="#254365" stroke-width="0.7" stroke-linecap="round" stroke-linejoin="round"/>
<path d="M7 15.5L5 13.5V9C5 8.17157 4.32843 7.5 3.5 7.5C2.67157 7.5 2 8.17157 2 9V15.0858C2 15.351 2.10536 15.6054 2.29289 15.7929L7 20.5V22H12V16.5" stroke="#254365" stroke-width="0.7" stroke-linecap="round" stroke-linejoin="round"/>
<path d="M12 16.5L16.5858 11.9142C17.4767 11.0233 19 11.6543 19 12.9142C19 13.2893 18.851 13.649 18.5858 13.9142L17 15.5" stroke="#254365" stroke-width="0.7" stroke-linecap="round" stroke-linejoin="round"/>
<path d="M12 16.5L7.41421 11.9142C6.52331 11.0233 5 11.6543 5 12.9142C5 13.2893 5.149 13.649 5.41421 13.9142L7 15.5" stroke="#254365" stroke-width="0.7" stroke-linecap="round" stroke-linejoin="round"/>
</svg>
