<svg width="32" height="32" viewBox="0 0 32 32" fill="none" xmlns="http://www.w3.org/2000/svg">
<rect width="32" height="32" rx="16" fill="#EEF5FE"/>
<g clip-path="url(#clip0_1588_8440)">
<path d="M20.4138 23.3118C20.4473 23.2566 20.4661 23.1938 20.4682 23.1292C20.4703 23.0647 20.4557 23.0008 20.4258 22.9435L18.7481 19.7425H19.4403C19.5048 19.7424 19.5681 19.7257 19.6242 19.694C19.6803 19.6622 19.7273 19.6166 19.7606 19.5614C19.794 19.5062 19.8125 19.4434 19.8145 19.3789C19.8164 19.3145 19.8017 19.2506 19.7718 19.1935L18.0888 15.9925H18.7803C18.8448 15.9924 18.9081 15.9757 18.9642 15.944C19.0203 15.9122 19.0673 15.8666 19.1006 15.8114C19.134 15.7562 19.1525 15.6934 19.1545 15.6289C19.1564 15.5645 19.1417 15.5006 19.1118 15.4435L15.1743 7.94354C15.1392 7.88712 15.0902 7.84059 15.0321 7.80832C14.9739 7.77605 14.9086 7.75912 14.8421 7.75912C14.7756 7.75912 14.7102 7.77605 14.6521 7.80832C14.5939 7.84059 14.545 7.88712 14.5098 7.94354L12.6116 11.5593L9.92507 6.44354C9.8899 6.38712 9.84095 6.34059 9.78282 6.30832C9.72469 6.27605 9.6593 6.25912 9.59282 6.25912C9.52633 6.25912 9.46095 6.27605 9.40282 6.30832C9.34469 6.34059 9.29573 6.38712 9.26057 6.44354L5.32307 13.9435C5.29313 14.0007 5.27844 14.0646 5.28043 14.1291C5.28243 14.1936 5.30102 14.2565 5.33443 14.3117C5.36784 14.3669 5.41493 14.4126 5.47114 14.4442C5.52736 14.4759 5.59079 14.4926 5.65532 14.4925H6.34832L4.66832 17.6935C4.63838 17.7507 4.62369 17.8146 4.62568 17.8791C4.62768 17.9436 4.64627 18.0065 4.67968 18.0617C4.71309 18.1169 4.76018 18.1626 4.81639 18.1942C4.87261 18.2259 4.93604 18.2426 5.00057 18.2425H5.69507L4.01132 21.4435C3.98141 21.5006 3.96672 21.5645 3.96868 21.6289C3.97064 21.6934 3.98917 21.7562 4.02249 21.8114C4.05581 21.8666 4.10279 21.9122 4.1589 21.944C4.21501 21.9757 4.27836 21.9924 4.34282 21.9925H8.09282V26.8675C8.09282 27.1659 8.21134 27.4521 8.42232 27.663C8.6333 27.874 8.91945 27.9925 9.21782 27.9925H9.96782C10.2662 27.9925 10.5523 27.874 10.7633 27.663C10.9743 27.4521 11.0928 27.1659 11.0928 26.8675V23.4925H13.3428V26.8675C13.3428 27.1659 13.4613 27.4521 13.6723 27.663C13.8833 27.874 14.1694 27.9925 14.4678 27.9925H15.2178C15.5162 27.9925 15.8023 27.874 16.0133 27.663C16.2243 27.4521 16.3428 27.1659 16.3428 26.8675V23.4925H20.0928C20.1574 23.4926 20.2208 23.476 20.277 23.4443C20.3333 23.4126 20.3804 23.367 20.4138 23.3118ZM4.96382 21.2425L6.53882 18.2425H7.22807C7.32752 18.2425 7.42291 18.203 7.49323 18.1327C7.56356 18.0624 7.60307 17.967 7.60307 17.8675C7.60307 17.7681 7.56356 17.6727 7.49323 17.6024C7.42291 17.5321 7.32752 17.4925 7.22807 17.4925H5.62082L7.19582 14.4925H8.02082C8.12027 14.4925 8.21566 14.453 8.28598 14.3827C8.35631 14.3124 8.39582 14.217 8.39582 14.1175C8.39582 14.0181 8.35631 13.9227 8.28598 13.8524C8.21566 13.7821 8.12027 13.7425 8.02082 13.7425H6.27557L9.59282 7.42379L12.1893 12.3648L10.5731 15.4398C10.5431 15.497 10.5284 15.5609 10.5304 15.6254C10.5324 15.6899 10.551 15.7527 10.5844 15.808C10.6178 15.8632 10.6649 15.9088 10.7211 15.9405C10.7774 15.9722 10.8408 15.9888 10.9053 15.9888H11.5976L9.92057 19.1935C9.89063 19.2507 9.87594 19.3146 9.87793 19.3791C9.87993 19.4436 9.89852 19.5065 9.93193 19.5617C9.96534 19.6169 10.0124 19.6626 10.0686 19.6942C10.1249 19.7259 10.1883 19.7426 10.2528 19.7425H10.9443L10.1553 21.2425H4.96382ZM10.3428 26.8675C10.3428 26.967 10.3033 27.0624 10.233 27.1327C10.1627 27.203 10.0673 27.2425 9.96782 27.2425H9.21782C9.11836 27.2425 9.02298 27.203 8.95265 27.1327C8.88233 27.0624 8.84282 26.967 8.84282 26.8675V21.9925H9.76082L9.26057 22.9435C9.23063 23.0007 9.21594 23.0646 9.21793 23.1291C9.21993 23.1936 9.23852 23.2565 9.27193 23.3117C9.30534 23.3669 9.35243 23.4126 9.40864 23.4442C9.46486 23.4759 9.52829 23.4926 9.59282 23.4925H10.3428V26.8675ZM15.5928 26.8675C15.5928 26.967 15.5533 27.0624 15.483 27.1327C15.4127 27.203 15.3173 27.2425 15.2178 27.2425H14.4678C14.3684 27.2425 14.273 27.203 14.2027 27.1327C14.1323 27.0624 14.0928 26.967 14.0928 26.8675V23.4925H15.5928V26.8675ZM15.9678 22.7425H10.2131L11.7881 19.7425H12.4766C12.576 19.7425 12.6714 19.703 12.7417 19.6327C12.8121 19.5624 12.8516 19.467 12.8516 19.3675C12.8516 19.2681 12.8121 19.1727 12.7417 19.1024C12.6714 19.0321 12.576 18.9925 12.4766 18.9925H10.8731L12.4481 15.9925H13.0083C13.1078 15.9925 13.2032 15.953 13.2735 15.8827C13.3438 15.8124 13.3833 15.717 13.3833 15.6175C13.3833 15.5181 13.3438 15.4227 13.2735 15.3524C13.2032 15.2821 13.1078 15.2425 13.0083 15.2425H11.5256L14.8428 8.92379L18.1601 15.2425H16.4553C16.3559 15.2425 16.2605 15.2821 16.1902 15.3524C16.1198 15.4227 16.0803 15.5181 16.0803 15.6175C16.0803 15.717 16.1198 15.8124 16.1902 15.8827C16.2605 15.953 16.3559 15.9925 16.4553 15.9925H17.2413L18.8163 18.9925H17.2053C17.1059 18.9925 17.0105 19.0321 16.9402 19.1024C16.8698 19.1727 16.8303 19.2681 16.8303 19.3675C16.8303 19.467 16.8698 19.5624 16.9402 19.6327C17.0105 19.703 17.1059 19.7425 17.2053 19.7425H17.8998L19.4748 22.7425H15.9678ZM19.6593 16.24C19.6096 16.3249 19.5952 16.4259 19.6192 16.5213C19.6433 16.6167 19.7038 16.6988 19.7878 16.7499C19.8718 16.8011 19.9726 16.8172 20.0684 16.7948C20.1641 16.7723 20.2473 16.7132 20.2998 16.63C20.5576 16.1958 20.7435 15.7227 20.8503 15.229C20.8917 15.0181 20.9188 14.8046 20.9313 14.59C20.945 14.1562 20.8914 13.7228 20.7723 13.3053C20.8933 13.4145 21.0054 13.5331 21.1076 13.66C21.422 14.0801 21.6434 14.5623 21.7571 15.0745C21.9017 15.7132 21.8596 16.38 21.6358 16.9955C21.412 17.6109 21.016 18.149 20.4948 18.5455C20.4548 18.5743 20.4208 18.6107 20.3948 18.6526C20.3688 18.6945 20.3514 18.741 20.3434 18.7897C20.3354 18.8383 20.3371 18.8881 20.3483 18.9361C20.3596 18.9841 20.3802 19.0294 20.4089 19.0694C20.4377 19.1095 20.4741 19.1434 20.516 19.1694C20.5578 19.1954 20.6045 19.2129 20.6531 19.2209C20.7017 19.2288 20.7515 19.2271 20.7995 19.2159C20.8475 19.2046 20.8928 19.1841 20.9328 19.1553C21.5715 18.6724 22.0578 18.016 22.3339 17.2645C22.6099 16.5129 22.6641 15.6978 22.4898 14.9163C22.3497 14.2881 22.076 13.6975 21.6873 13.1845C21.2764 12.6784 20.7445 12.284 20.1408 12.0378C20.0693 12.0086 19.9905 12.0023 19.9153 12.0196C19.84 12.0369 19.7719 12.077 19.7203 12.1344C19.6687 12.1919 19.6361 12.2638 19.6269 12.3405C19.6178 12.4172 19.6325 12.4948 19.6691 12.5628C20.0044 13.1746 20.1806 13.8609 20.1813 14.5585C20.1706 14.7374 20.1475 14.9153 20.1123 15.091C20.0218 15.4952 19.869 15.8829 19.6593 16.24ZM27.9498 19.9473C27.9359 19.8677 27.8966 19.7948 27.8379 19.7393C27.7792 19.6838 27.7041 19.6488 27.6239 19.6394C27.5436 19.6301 27.4625 19.6469 27.3926 19.6874C27.3227 19.7278 27.2677 19.7898 27.2358 19.864C27.1781 19.9998 27.1166 20.1295 27.0498 20.2555C27.219 19.338 27.19 18.3949 26.965 17.4894C26.7399 16.584 26.3239 15.7371 25.7448 15.0055C25.696 14.9433 25.6287 14.8981 25.5526 14.8765C25.4765 14.8548 25.3956 14.8577 25.3212 14.8848C25.2469 14.912 25.1831 14.9619 25.1389 15.0275C25.0947 15.0931 25.0723 15.171 25.0751 15.25C25.1061 15.7491 24.9923 16.2466 24.7473 16.6825C24.7312 14.2504 24.0277 11.8724 22.7178 9.82304C21.5412 8.02361 19.9267 6.55259 18.0258 5.54804C17.9596 5.51282 17.8843 5.49826 17.8098 5.50625C17.7352 5.51424 17.6647 5.54441 17.6075 5.59287C17.5502 5.64132 17.5088 5.70582 17.4886 5.77805C17.4684 5.85028 17.4703 5.92691 17.4941 5.99804C17.9406 7.37965 17.9802 8.86056 17.6081 10.264C17.5651 10.425 17.5176 10.5815 17.4656 10.7335C17.4475 10.7806 17.4392 10.8309 17.441 10.8813C17.4429 10.9317 17.4549 10.9812 17.4763 11.0268C17.4977 11.0725 17.5281 11.1134 17.5657 11.147C17.6033 11.1806 17.6472 11.2063 17.695 11.2226C17.7427 11.2388 17.7932 11.2453 17.8435 11.2416C17.8938 11.2378 17.9428 11.224 17.9876 11.2009C18.0325 11.1778 18.0722 11.1459 18.1044 11.1071C18.1366 11.0683 18.1606 11.0234 18.1751 10.975C18.2313 10.8085 18.2846 10.636 18.3326 10.4575C18.6634 9.2164 18.7004 7.91522 18.4406 6.65729C19.9014 7.57118 21.1459 8.7919 22.0878 10.2348C23.4914 12.442 24.1521 15.0404 23.9733 17.65C23.9681 17.7219 23.9838 17.7937 24.0183 17.8569C24.0529 17.9201 24.1049 17.9721 24.1682 18.0065C24.2315 18.0409 24.3034 18.0563 24.3752 18.051C24.447 18.0456 24.5158 18.0197 24.5733 17.9763C24.8152 17.7978 25.0304 17.5857 25.2123 17.3463C25.4446 17.0373 25.615 16.6864 25.7141 16.3128C25.9591 16.7639 26.1423 17.246 26.2586 17.746C26.5716 19.1512 26.378 20.6218 25.7118 21.898C25.6726 21.9745 25.6609 22.062 25.6785 22.146C25.6961 22.2301 25.742 22.3055 25.8085 22.3598C25.8751 22.4141 25.9583 22.4438 26.0441 22.4442C26.13 22.4445 26.2134 22.4153 26.2803 22.3615C26.511 22.1725 26.7264 21.9656 26.9246 21.7428C27.0441 21.6103 27.1573 21.4713 27.2643 21.3258C27.2516 21.4473 27.2358 21.568 27.2141 21.688C26.8796 23.5578 25.2843 25.2963 23.1678 26.3088C23.4981 25.8351 23.7005 25.2842 23.7555 24.7093C23.8104 24.1345 23.716 23.5552 23.4813 23.0275C23.2706 22.4824 22.9476 21.9878 22.5332 21.5757C22.1188 21.1636 21.6224 20.8434 21.0761 20.6358C21.0286 20.6225 20.9791 20.6187 20.9302 20.6245C20.8813 20.6304 20.834 20.6458 20.7911 20.67C20.7481 20.6941 20.7104 20.7265 20.6799 20.7652C20.6495 20.8039 20.627 20.8482 20.6137 20.8957C20.6004 20.9431 20.5966 20.9927 20.6024 21.0416C20.6083 21.0905 20.6237 21.1377 20.6479 21.1807C20.672 21.2236 20.7044 21.2614 20.7431 21.2918C20.7818 21.3222 20.8261 21.3447 20.8736 21.358C21.3081 21.538 21.7018 21.804 22.0307 22.1402C22.3597 22.4764 22.6171 22.8757 22.7876 23.314C22.975 23.7268 23.0516 24.1813 23.0098 24.6327C22.968 25.0841 22.8092 25.5168 22.5491 25.888C22.0605 26.505 21.376 26.9367 20.6088 27.112H20.6013C20.5617 27.1165 20.5226 27.1243 20.4843 27.1353C20.2796 27.1705 20.0741 27.1915 19.8768 27.2065L19.4036 27.2358C18.7192 27.2313 18.0496 27.0369 17.4693 26.674C17.3856 26.6202 17.2839 26.6019 17.1866 26.6231C17.0894 26.6442 17.0045 26.7032 16.9507 26.7869C16.8969 26.8707 16.8786 26.9723 16.8997 27.0696C16.9209 27.1669 16.9798 27.2517 17.0636 27.3055C17.7662 27.7461 18.578 27.9817 19.4073 27.9858H19.4298C19.4823 27.9858 19.5356 27.9858 19.5888 27.9858C19.9289 27.9834 20.2678 27.9469 20.6006 27.877H20.6096C20.6543 27.8749 20.6983 27.8655 20.7401 27.8493H20.7543C24.3498 27.2703 27.4406 24.6835 27.9543 21.8215C28.0637 21.2017 28.0622 20.5666 27.9498 19.9473Z" fill="#254365"/>
</g>
<defs>
<clipPath id="clip0_1588_8440">
<rect width="24" height="24" fill="white" transform="translate(4 4)"/>
</clipPath>
</defs>
</svg>
