<svg width="20" height="20" viewBox="0 0 20 20" fill="none" xmlns="http://www.w3.org/2000/svg">
<path d="M7.0835 7.50001L15.8335 3.33334V15L7.0835 11.6667V7.50001Z" stroke="#3AB77C" stroke-width="0.9" stroke-linejoin="round"/>
<path d="M7.0835 7.5H3.75016V11.6667H7.0835V7.5Z" stroke="#3AB77C" stroke-width="0.9" stroke-linejoin="round"/>
<path d="M6.66675 11.6667H4.16675L5.18711 15.7481C5.32207 16.2879 5.80712 16.6667 6.36358 16.6667C7.15251 16.6667 7.73139 15.9252 7.54005 15.1599L6.66675 11.6667Z" stroke="#3AB77C" stroke-width="0.9" stroke-linejoin="round"/>
<path d="M3.75 8.33334H1.66667V10.8333H3.75V8.33334Z" stroke="#3AB77C" stroke-width="0.9" stroke-linejoin="round"/>
<path d="M18.3335 9.58334C18.3335 8.89299 17.7739 8.33334 17.0835 8.33334H15.8335V10.8333H17.0835C17.7739 10.8333 18.3335 10.2737 18.3335 9.58334Z" stroke="#3AB77C" stroke-width="0.9" stroke-linejoin="round"/>
<path d="M15.8335 2.08334V16.25" stroke="#3AB77C" stroke-width="0.9" stroke-linejoin="round"/>
</svg>
