<svg width="32" height="32" viewBox="0 0 32 32" fill="none" xmlns="http://www.w3.org/2000/svg">
<rect width="32" height="32" rx="16" fill="#EEF5FE"/>
<g clip-path="url(#clip0_448_983)">
<path d="M11.8478 6.00003C10.7286 6.00003 9.81815 6.87138 9.81815 7.94206V8.56574H8.69513C7.57663 8.56574 6.6665 9.43775 6.6665 10.5098V24.0593C6.6665 25.1294 7.57663 26 8.69513 26H23.3045C24.423 26 25.3332 25.1294 25.3332 24.0593V10.5098C25.3332 9.43775 24.423 8.56574 23.3045 8.56574H22.1815V7.94206C22.1815 6.87138 21.271 6.00003 20.1519 6.00003C19.0327 6.00003 18.1218 6.87138 18.1218 7.94206V8.56574H13.8778V7.94206C13.8778 6.87138 12.9674 6.00003 11.8478 6.00003ZM11.8478 6.66671C12.5827 6.66671 13.181 7.23872 13.181 7.94206V9.85943C13.181 10.5628 12.5827 11.1348 11.8478 11.1348C11.113 11.1348 10.515 10.5628 10.515 9.85943V8.90075V8.89908V8.89741V7.94206C10.515 7.23872 11.113 6.66671 11.8478 6.66671ZM23.3045 25.3337H8.69513C7.96096 25.3337 7.36339 24.762 7.36339 24.0597V13.6652H24.6363V24.0597C24.6363 24.762 24.0387 25.3337 23.3045 25.3337ZM18.8187 7.94206C18.8187 7.23872 19.417 6.66671 20.1519 6.66671C20.8867 6.66671 21.4846 7.23872 21.4846 7.94206V8.89741V8.89908V8.90075V9.85943C21.4846 10.5628 20.8867 11.1348 20.1519 11.1348C19.417 11.1348 18.8187 10.5628 18.8187 9.85943V7.94206ZM18.1218 9.23242V9.85943C18.1218 10.9301 19.0323 11.8015 20.1519 11.8015C21.2714 11.8015 22.1815 10.9301 22.1815 9.85943V9.23242H23.3045C24.0387 9.23242 24.6363 9.80543 24.6363 10.5098V12.9981H7.36339V10.5098C7.36339 9.80543 7.96096 9.23242 8.69513 9.23242H9.81815V9.85943C9.81815 10.9301 10.7286 11.8015 11.8478 11.8015C12.967 11.8015 13.8778 10.9301 13.8778 9.85943V9.23242H18.1218Z" fill="#254365"/>
<path d="M19.978 19.7224C19.3907 18.2844 17.9883 17.3334 16.42 17.3334C14.9313 17.3334 13.5997 18.1767 12.96 19.503C11.346 19.385 9.99967 20.67 10 22.2584C10 23.7817 11.2393 25.021 12.7627 25.021H19.7183C21.183 25.021 22.3743 23.8297 22.3743 22.3654C22.3743 20.9944 21.319 19.8537 19.978 19.7224ZM19.7187 24.3544H12.763C11.6073 24.3544 10.667 23.414 10.667 22.2584C10.667 21.1027 11.6073 20.1624 12.763 20.1624C12.869 20.1624 12.9777 20.1727 13.0863 20.1897C13.2487 20.2474 13.472 20.358 13.6707 20.572C13.958 20.8817 14.0353 21.238 14.0553 21.423C14.0743 21.5937 14.2183 21.72 14.3863 21.72C14.3983 21.72 14.4107 21.7194 14.423 21.718C14.606 21.6977 14.738 21.533 14.718 21.35C14.6887 21.0834 14.577 20.5687 14.159 20.1184C13.9813 19.927 13.7917 19.7964 13.6153 19.7007C14.1613 18.6607 15.226 18 16.4197 18C17.677 18 18.804 18.7404 19.3137 19.8694C19.1023 19.9814 18.909 20.1247 18.7473 20.2987C18.33 20.7487 18.2183 21.2634 18.189 21.53C18.1687 21.713 18.301 21.8777 18.484 21.898C18.4963 21.8994 18.5087 21.9 18.5207 21.9C18.6887 21.9 18.833 21.7737 18.8517 21.603C18.872 21.418 18.949 21.0617 19.236 20.7524C19.424 20.5494 19.6347 20.4404 19.795 20.38C20.8543 20.4207 21.7077 21.2987 21.7077 22.3654C21.7077 23.4624 20.8153 24.3544 19.7183 24.3544H19.7187Z" fill="#254365"/>
<g clip-path="url(#clip1_448_983)">
<circle cx="13.2909" cy="18.9041" r="2.42424" transform="rotate(-31.6557 13.2909 18.9041)" stroke="#254365" stroke-width="0.666667" stroke-linejoin="round"/>
<path d="M10.9585 15.1209L11.4886 15.9808" stroke="#254365" stroke-width="0.666667"/>
<path d="M15.0935 21.8275L15.6236 22.6873" stroke="#254365" stroke-width="0.666667"/>
<path d="M9.50781 21.2366L10.3676 20.7065" stroke="#254365" stroke-width="0.666667"/>
<path d="M16.2144 17.1017L17.0742 16.5715" stroke="#254365" stroke-width="0.666667"/>
<path d="M8.96655 17.8783L9.94938 18.1115" stroke="#254365" stroke-width="0.666667"/>
<path d="M16.6326 19.6968L17.6154 19.9299" stroke="#254365" stroke-width="0.666667"/>
<path d="M14.3167 14.5797L14.0835 15.5625" stroke="#254365" stroke-width="0.666667"/>
</g>
</g>
<defs>
<clipPath id="clip0_448_983">
<rect width="21.3333" height="21.3333" fill="white" transform="translate(5.33325 5.33334)"/>
</clipPath>
<clipPath id="clip1_448_983">
<rect width="10.6667" height="5.82293" fill="white" transform="translate(5.95215 17.1633) rotate(-31.6557)"/>
</clipPath>
</defs>
</svg>
