<svg width="32" height="32" viewBox="0 0 32 32" fill="none" xmlns="http://www.w3.org/2000/svg">
<rect width="32" height="32" rx="16" fill="#EEF5FE"/>
<path d="M6 22.5714L7.34958 23.3426C8.04695 23.7411 8.91506 23.6838 9.55394 23.197L9.78791 23.0187C10.5039 22.4732 11.4961 22.4732 12.2121 23.0187L12.2879 23.0765C13.0039 23.622 13.9961 23.622 14.7121 23.0765L14.7879 23.0187C15.5039 22.4732 16.4961 22.4732 17.2121 23.0187L17.2879 23.0765C18.0039 23.622 18.9961 23.622 19.7121 23.0765L19.7879 23.0187C20.5039 22.4732 21.4961 22.4732 22.2121 23.0187L22.4461 23.197C23.0849 23.6838 23.9531 23.7411 24.6504 23.3426L26 22.5714" stroke="#254365" stroke-linejoin="round"/>
<path d="M6 18.2857L7.34958 19.0569C8.04695 19.4554 8.91506 19.398 9.55394 18.9113L9.78791 18.733C10.5039 18.1875 11.4961 18.1875 12.2121 18.733L12.2879 18.7908C13.0039 19.3363 13.9961 19.3363 14.7121 18.7908L14.7879 18.733C15.5039 18.1875 16.4961 18.1875 17.2121 18.733L17.2879 18.7908C18.0039 19.3363 18.9961 19.3363 19.7121 18.7908L19.7879 18.733C20.5039 18.1875 21.4961 18.1875 22.2121 18.733L22.4461 18.9113C23.0849 19.398 23.9531 19.4554 24.6504 19.0569L26 18.2857" stroke="#254365" stroke-linejoin="round"/>
<path d="M6 14L7.34958 14.7712C8.04695 15.1697 8.91506 15.1123 9.55394 14.6256L9.78791 14.4473C10.5039 13.9018 11.4961 13.9018 12.2121 14.4473L12.2879 14.5051C13.0039 15.0506 13.9961 15.0506 14.7121 14.5051L14.7879 14.4473C15.5039 13.9018 16.4961 13.9018 17.2121 14.4473L17.2879 14.5051C18.0039 15.0506 18.9961 15.0506 19.7121 14.5051L19.7879 14.4473C20.5039 13.9018 21.4961 13.9018 22.2121 14.4473L22.4461 14.6256C23.0849 15.1123 23.9531 15.1697 24.6504 14.7712L26 14" stroke="#254365" stroke-linejoin="round"/>
<path d="M6 9.71429L7.34958 10.4855C8.04695 10.884 8.91506 10.8266 9.55394 10.3399L9.78791 10.1616C10.5039 9.61608 11.4961 9.61608 12.2121 10.1616L12.2879 10.2194C13.0039 10.7649 13.9961 10.7649 14.7121 10.2194L14.7879 10.1616C15.5039 9.61608 16.4961 9.61608 17.2121 10.1616L17.2879 10.2194C18.0039 10.7649 18.9961 10.7649 19.7121 10.2194L19.7879 10.1616C20.5039 9.61608 21.4961 9.61608 22.2121 10.1616L22.4461 10.3399C23.0849 10.8266 23.9531 10.884 24.6504 10.4855L26 9.71429" stroke="#254365" stroke-linejoin="round"/>
</svg>
