<svg width="24" height="24" viewBox="0 0 24 24" fill="none" xmlns="http://www.w3.org/2000/svg">
<path d="M22 13.4999H17.75V6.9249C17.83 6.9699 17.915 6.9999 18 6.9999C18.15 6.9999 18.3 6.9299 18.4 6.7999C18.565 6.5799 18.52 6.2649 18.3 6.0999L12.3 1.5999C12.12 1.4649 11.88 1.4649 11.7 1.5999L5.7 6.0999C5.48 6.2649 5.435 6.5799 5.6 6.7999C5.755 7.0049 6.035 7.0499 6.25 6.9249V13.4999H2C1.725 13.4999 1.5 13.7249 1.5 13.9999V21.9999C1.5 22.2749 1.725 22.4999 2 22.4999H11.5C11.525 22.4999 11.55 22.4899 11.575 22.4849C11.61 22.4799 11.64 22.4749 11.675 22.4649C11.705 22.4549 11.735 22.4349 11.76 22.4149C11.785 22.3999 11.81 22.3849 11.835 22.3649C11.86 22.3399 11.88 22.3099 11.905 22.2799C11.92 22.2599 11.935 22.2449 11.95 22.2249L12.95 20.2249C13 20.1249 13.015 20.0099 12.995 19.9049L12.82 19.0249L13.9 20.0999L13.06 21.7799C13.06 21.7849 13.06 21.7899 13.055 21.7949C13.04 21.8249 13.035 21.8599 13.03 21.8899C13.02 21.9249 13.01 21.9549 13.01 21.9899C13.01 21.9949 13.005 21.9999 13.005 22.0049C13.005 22.0299 13.015 22.0499 13.02 22.0749C13.025 22.1099 13.03 22.1449 13.04 22.1799C13.05 22.2099 13.07 22.2349 13.085 22.2649C13.1 22.2899 13.115 22.3199 13.14 22.3449C13.165 22.3699 13.195 22.3899 13.225 22.4099C13.245 22.4249 13.26 22.4449 13.28 22.4549C13.285 22.4549 13.29 22.4549 13.295 22.4599C13.36 22.4899 13.425 22.5099 13.5 22.5099C13.5 22.5099 13.5 22.5099 13.505 22.5099H22.005C22.28 22.5099 22.505 22.2849 22.505 22.0099V18.1199C22.505 18.1099 22.5 18.0999 22.5 18.0949C22.5 18.0849 22.505 18.0749 22.505 18.0649C22.5 18.0399 22.49 18.0199 22.485 17.9999C22.475 17.9649 22.47 17.9299 22.455 17.8999C22.445 17.8749 22.425 17.8549 22.41 17.8349C22.385 17.8049 22.365 17.7749 22.335 17.7499C22.315 17.7349 22.295 17.7249 22.275 17.7099C22.24 17.6899 22.21 17.6699 22.17 17.6549C22.145 17.6449 22.115 17.6449 22.085 17.6399C22.06 17.6349 22.035 17.6249 22.01 17.6249C22 17.6249 21.99 17.6299 21.98 17.6299C21.97 17.6299 21.96 17.6249 21.95 17.6249L19.865 17.8549L20.25 17.4699L22.1 17.0999C22.115 17.0949 22.13 17.0849 22.145 17.0799C22.18 17.0699 22.21 17.0549 22.24 17.0399C22.27 17.0249 22.29 17.0099 22.315 16.9899C22.34 16.9699 22.36 16.9449 22.385 16.9199C22.405 16.8949 22.42 16.8699 22.435 16.8449C22.45 16.8149 22.46 16.7899 22.47 16.7599C22.48 16.7299 22.485 16.6949 22.49 16.6649C22.49 16.6499 22.5 16.6349 22.5 16.6149V13.9999C22.5 13.7249 22.275 13.4999 22 13.4999ZM7.25 6.1849L12 2.6249L16.75 6.1849V13.4999H14V10.6249C14 10.3499 13.775 10.1249 13.5 10.1249H10.5C10.225 10.1249 10 10.3499 10 10.6249V13.4999H7.715H7.25V6.1849ZM13 11.1249V13.4999H11V11.1249H13ZM6.995 14.9199L6.925 14.4999H7.34L7.51 15.1049L7.825 17.3199L6.585 16.3249L6.975 15.1549C7 15.0799 7.005 14.9999 6.995 14.9199ZM21.5 16.1899L19.9 16.5099C19.805 16.5299 19.715 16.5749 19.645 16.6449L18.145 18.1449C17.995 18.2949 17.955 18.5249 18.05 18.7149C18.135 18.8899 18.31 18.9999 18.5 18.9999C18.52 18.9999 18.535 18.9999 18.555 18.9949L21.5 18.6699V21.4999H14.31L14.95 20.2249C15.045 20.0349 15.01 19.7999 14.855 19.6499L12.355 17.1499C12.2 16.9949 11.96 16.9599 11.765 17.0649C11.57 17.1699 11.465 17.3899 11.51 17.6049L11.975 19.9349L11.19 21.4999H2.5V14.4999H5.91L5.985 14.9599L5.525 16.3399C5.46 16.5399 5.525 16.7599 5.685 16.8899L8.185 18.8899C8.28 18.9649 8.39 18.9999 8.5 18.9999C8.585 18.9999 8.67 18.9799 8.75 18.9349C8.93 18.8349 9.025 18.6349 8.995 18.4299L8.495 14.9299C8.49 14.9099 8.485 14.8849 8.48 14.8649L8.38 14.4999H10.5H13.5H17.25H21.5V16.1899Z" fill="#254365"/>
</svg>
